<svg width="246" height="93" viewBox="0 0 246 93" fill="none" xmlns="http://www.w3.org/2000/svg">
<path d="M58.5397 66.1533V65.829C61.1885 65.3965 62.594 63.3423 62.594 59.7745V34.6917C62.594 31.1239 61.1885 29.0697 58.5397 28.6373V28.3129H74.757V28.6373C72.1082 29.0697 70.7027 31.1239 70.7027 34.6917V59.7745C70.7027 63.3423 72.1082 65.3965 74.757 65.829V66.1533H58.5397ZM76.9383 66.1533V65.829C79.5871 65.3965 80.9926 63.3423 80.9926 59.7745V34.6917C80.9926 31.1239 79.5871 29.0697 76.9383 28.6373V28.3129H93.1556C106.886 28.3129 112.022 30.3671 112.022 35.7729C112.022 40.4219 108.238 42.7463 98.3992 43.5572C109.319 44.7465 114.184 48.2062 114.184 55.0715C114.184 62.6936 108.13 66.1533 94.7774 66.1533H76.9383ZM89.1013 42.8545C100.778 42.7463 103.805 41.503 103.805 36.8C103.805 31.8807 100.507 29.2319 96.1829 29.34C90.4527 29.5022 89.1013 31.1239 89.1013 34.6917V42.8545ZM89.1013 44.1518V59.7745C89.1013 63.3423 90.4527 65.0722 97.3721 65.0722C102.724 65.0722 105.967 61.6665 105.967 55.0174C105.967 46.9628 101.318 44.3681 89.1013 44.1518ZM114.922 66.1533V65.829C117.571 65.3965 118.977 63.3423 118.977 59.7745V34.6917C118.977 31.1239 117.571 29.0697 114.922 28.6373V28.3129H131.14C145.573 28.3129 152.168 31.6645 152.168 39.1245C152.168 46.0439 146.33 49.5576 132.707 50.3144C134.924 53.1254 140.113 59.5042 146.384 59.5042C149.303 59.5042 151.627 58.1528 151.682 56.477H152.006C152.006 62.6396 150.654 66.6939 145.951 66.6939C137.518 66.6939 133.032 53.6119 131.302 50.4766C129.95 50.5306 128.545 50.5847 127.085 50.5847V59.7745C127.085 63.3423 128.491 65.3965 131.14 65.829V66.1533H114.922ZM127.085 49.5035C139.41 49.3414 143.951 46.8007 143.951 39.1245C143.951 31.8807 140.167 29.0157 131.14 29.3941C128.437 29.5022 127.085 31.1239 127.085 34.6917V49.5035ZM153.804 66.1533V65.829C156.453 65.3965 157.858 63.3423 157.858 59.7745V34.6917C157.858 31.1239 156.453 29.0697 153.804 28.6373V28.3129H170.021V28.6373C167.372 29.0697 165.967 31.1239 165.967 34.6917V59.7745C165.967 63.3423 167.372 65.3965 170.021 65.829V66.1533H153.804ZM186.085 66.6939C179.544 66.6939 174.463 64.8019 170.355 61.3962L174.571 53.5579L175.166 53.9903C176.571 60.8557 181.328 65.6127 186.085 65.6127C192.302 65.6127 195.6 63.5045 195.6 59.0718C195.6 48.3143 170.679 52.0443 170.679 39.1785C170.679 32.151 175.436 27.7724 186.572 27.7724C194.248 27.7724 199.276 30.3671 201.762 35.1242L197.546 42.3679L196.681 42.3139C195.654 34.043 191.87 28.8535 186.572 28.8535C180.355 28.8535 178.788 31.1239 178.842 35.5567C179.058 46.0979 203.654 42.3679 203.87 55.1796C203.979 62.3152 197.221 66.6939 186.085 66.6939ZM205.435 66.1533V65.829C208.084 65.3965 209.489 63.3423 209.489 59.7745V34.6917C209.489 31.1239 208.084 29.0697 205.435 28.6373V28.3129H221.652V28.6373C219.004 29.0697 217.598 31.1239 217.598 34.6917V46.6925H232.032V34.6917C232.032 31.1239 230.626 29.0697 227.977 28.6373V28.3129H244.195V28.6373C241.546 29.0697 240.14 31.1239 240.14 34.6917V59.7745C240.14 63.3423 241.546 65.3965 244.195 65.829V66.1533H227.977V65.829C230.626 65.3965 232.032 63.3423 232.032 59.7745V47.7737H217.598V59.7745C217.598 63.3423 219.004 65.3965 221.652 65.829V66.1533H205.435Z" fill="#B87333"/>
<path d="M59.6257 88.6309V79.3002H60.7739V88.6309H59.6257ZM65.8252 88.71C65.5085 88.71 65.2137 88.6749 64.941 88.6045C64.677 88.5253 64.4351 88.4153 64.2151 88.2745C64.0039 88.1337 63.8192 87.971 63.6608 87.7862L63.608 88.6309H62.539V79.3002H63.6608V82.6787C63.8896 82.3268 64.2151 82.0585 64.6374 81.8737C65.0685 81.6889 65.5085 81.5965 65.9572 81.5965C66.6611 81.5965 67.2373 81.7549 67.6861 82.0716C68.1348 82.3796 68.4647 82.8019 68.6759 83.3386C68.8958 83.8665 69.0058 84.4648 69.0058 85.1335C69.0058 85.7934 68.8914 86.3961 68.6627 86.9416C68.4339 87.4783 68.0864 87.9094 67.6201 88.2349C67.1538 88.5517 66.5555 88.71 65.8252 88.71ZM65.812 87.7202C66.3223 87.7202 66.727 87.6058 67.0262 87.3771C67.3253 87.1395 67.5409 86.8272 67.6729 86.4401C67.8136 86.0529 67.884 85.6262 67.884 85.1599C67.884 84.6848 67.8136 84.2537 67.6729 83.8665C67.5409 83.4794 67.3209 83.1714 67.013 82.9427C66.705 82.7139 66.2959 82.5996 65.7856 82.5996C65.3281 82.5996 64.9366 82.7271 64.611 82.9823C64.2943 83.2374 64.0523 83.563 63.8852 83.9589C63.718 84.3548 63.6344 84.7596 63.6344 85.1731C63.6344 85.6218 63.7048 86.0397 63.8456 86.4269C63.9951 86.814 64.2283 87.1263 64.545 87.3639C64.8706 87.6014 65.2929 87.7202 65.812 87.7202ZM70.24 88.6309V81.6757H71.3222L71.375 82.7579C71.551 82.4852 71.7533 82.2652 71.9821 82.098C72.2196 81.9309 72.4792 81.8077 72.7608 81.7285C73.0511 81.6405 73.3634 81.5965 73.6978 81.5965C73.7594 81.5965 73.8166 81.5965 73.8694 81.5965C73.9309 81.5965 73.9925 81.5965 74.0541 81.5965V82.6523H73.645C73.0995 82.6523 72.6552 82.7711 72.312 83.0087C71.9777 83.2374 71.7357 83.5498 71.5862 83.9457C71.4366 84.3328 71.3618 84.764 71.3618 85.2391V88.6309H70.24ZM74.8994 88.6309V81.6757H76.0212V88.6309H74.8994ZM75.4537 80.6463C75.2249 80.6463 75.0402 80.5759 74.8994 80.4351C74.7674 80.2944 74.7014 80.114 74.7014 79.894C74.7014 79.6741 74.7718 79.4981 74.9126 79.3661C75.0534 79.2254 75.2337 79.155 75.4537 79.155C75.656 79.155 75.832 79.2254 75.9816 79.3661C76.14 79.5069 76.2191 79.6829 76.2191 79.894C76.2191 80.114 76.1444 80.2944 75.9948 80.4351C75.8452 80.5759 75.6648 80.6463 75.4537 80.6463ZM80.0563 88.71C79.7396 88.71 79.4185 88.6793 79.0929 88.6177C78.7762 88.5561 78.477 88.4505 78.1955 88.3009C77.9227 88.1513 77.694 87.949 77.5092 87.6938C77.3244 87.4387 77.2057 87.1219 77.1529 86.7436H78.2879C78.3759 86.9812 78.5166 87.1747 78.7102 87.3243C78.9126 87.4651 79.1369 87.5663 79.3833 87.6278C79.6384 87.6894 79.8804 87.7202 80.1091 87.7202C80.2499 87.7202 80.4127 87.7114 80.5974 87.6938C80.7822 87.6762 80.9582 87.6366 81.1254 87.5751C81.3013 87.5047 81.4421 87.4035 81.5477 87.2715C81.6621 87.1395 81.7192 86.9548 81.7192 86.7172C81.7192 86.5412 81.6797 86.3961 81.6005 86.2817C81.5213 86.1673 81.4113 86.0749 81.2705 86.0045C81.1298 85.9254 80.9582 85.8682 80.7558 85.833C80.3423 85.745 79.898 85.6614 79.4229 85.5822C78.9565 85.503 78.543 85.3535 78.1823 85.1335C78.0591 85.0543 77.9447 84.9663 77.8391 84.8695C77.7424 84.764 77.6588 84.6496 77.5884 84.5264C77.518 84.3944 77.4608 84.2537 77.4168 84.1041C77.3816 83.9457 77.364 83.7741 77.364 83.5894C77.364 83.2462 77.43 82.9515 77.562 82.7051C77.7028 82.45 77.8963 82.2432 78.1427 82.0848C78.389 81.9177 78.6706 81.7945 78.9873 81.7153C79.3129 81.6361 79.6604 81.5965 80.03 81.5965C80.4875 81.5965 80.8966 81.6713 81.2573 81.8209C81.6269 81.9617 81.9304 82.1728 82.168 82.4544C82.4055 82.7271 82.5463 83.0659 82.5903 83.4706H81.5477C81.4861 83.2154 81.3189 83.0087 81.0462 82.8503C80.7734 82.6831 80.4259 82.5996 80.0036 82.5996C79.8628 82.5996 79.7044 82.6128 79.5284 82.6391C79.3525 82.6567 79.1853 82.7007 79.0269 82.7711C78.8686 82.8327 78.7366 82.9295 78.631 83.0615C78.5254 83.1846 78.4726 83.3518 78.4726 83.563C78.4726 83.7565 78.521 83.9193 78.6178 84.0513C78.7234 84.1833 78.8686 84.2888 79.0533 84.368C79.2381 84.4472 79.4493 84.5132 79.6868 84.566C79.9948 84.6276 80.3335 84.6936 80.703 84.764C81.0726 84.8255 81.3629 84.8915 81.5741 84.9619C81.8556 85.0499 82.0888 85.1731 82.2735 85.3315C82.4671 85.4898 82.6079 85.679 82.6959 85.899C82.7927 86.1189 82.841 86.3741 82.841 86.6644C82.841 87.0779 82.7575 87.4167 82.5903 87.6806C82.4319 87.9446 82.2164 88.1513 81.9436 88.3009C81.6709 88.4505 81.3673 88.5561 81.033 88.6177C80.7074 88.6793 80.3819 88.71 80.0563 88.71ZM83.9733 88.6309V79.3002H85.095V82.7447C85.2622 82.4984 85.4646 82.2916 85.7021 82.1244C85.9485 81.9485 86.2168 81.8165 86.5072 81.7285C86.7975 81.6405 87.0967 81.5965 87.4046 81.5965C88.0821 81.5965 88.61 81.7373 88.9883 82.0189C89.3755 82.3004 89.6482 82.6831 89.8066 83.1671C89.965 83.6422 90.0442 84.1877 90.0442 84.8036V88.6309H88.9224V85.1467C88.9224 84.8387 88.9004 84.5352 88.8564 84.2361C88.8212 83.9281 88.7464 83.651 88.632 83.4046C88.5176 83.1583 88.3417 82.9603 88.1041 82.8107C87.8753 82.6611 87.563 82.5864 87.1671 82.5864C86.7887 82.5864 86.4632 82.6699 86.1904 82.8371C85.9265 83.0043 85.7153 83.2286 85.557 83.5102C85.3986 83.7829 85.2798 84.0865 85.2006 84.4208C85.1302 84.7464 85.095 85.0675 85.095 85.3842V88.6309H83.9733ZM95.0507 88.6309V79.3002H98.3237C98.79 79.3002 99.2123 79.3397 99.5907 79.4189C99.969 79.4893 100.295 79.6125 100.567 79.7885C100.849 79.9644 101.064 80.202 101.214 80.5011C101.364 80.8003 101.438 81.1786 101.438 81.6361C101.438 82.1112 101.328 82.5336 101.108 82.9031C100.897 83.2726 100.567 83.5454 100.119 83.7213C100.717 83.8269 101.166 84.0733 101.465 84.4604C101.764 84.8387 101.913 85.3447 101.913 85.9781C101.913 86.4972 101.817 86.9284 101.623 87.2715C101.43 87.6146 101.161 87.8874 100.818 88.0898C100.484 88.2833 100.097 88.4241 99.6566 88.5121C99.2167 88.5913 98.7504 88.6309 98.2577 88.6309H95.0507ZM96.1989 87.5882H98.2181C98.4909 87.5882 98.7724 87.5751 99.0628 87.5487C99.3619 87.5135 99.639 87.4475 99.8942 87.3507C100.149 87.2451 100.356 87.0823 100.514 86.8624C100.673 86.6424 100.752 86.3477 100.752 85.9781C100.752 85.6614 100.69 85.4018 100.567 85.1995C100.453 84.9971 100.295 84.8387 100.092 84.7244C99.8986 84.61 99.6742 84.5308 99.4191 84.4868C99.1639 84.4428 98.9044 84.4208 98.6404 84.4208H96.1989V87.5882ZM96.1989 83.3914H97.9937C98.3193 83.3914 98.6228 83.365 98.9044 83.3122C99.1859 83.2506 99.4323 83.1539 99.6434 83.0219C99.8546 82.8899 100.017 82.7183 100.132 82.5072C100.255 82.296 100.317 82.0321 100.317 81.7153C100.325 81.3106 100.237 81.0114 100.053 80.8179C99.8678 80.6243 99.6215 80.4967 99.3135 80.4351C99.0144 80.3736 98.6888 80.3428 98.3369 80.3428H96.1989V83.3914ZM106.087 88.71C105.128 88.71 104.398 88.4549 103.897 87.9446C103.404 87.4343 103.158 86.6512 103.158 85.5954V81.6757H104.279V85.5426C104.279 86.0001 104.345 86.3917 104.477 86.7172C104.609 87.0427 104.807 87.2935 105.071 87.4695C105.344 87.6366 105.683 87.7202 106.087 87.7202C106.51 87.7202 106.857 87.6366 107.13 87.4695C107.403 87.2935 107.601 87.0427 107.724 86.7172C107.856 86.3917 107.922 86.0001 107.922 85.5426V81.6757H109.044V85.5954C109.044 86.6512 108.789 87.4343 108.278 87.9446C107.777 88.4549 107.047 88.71 106.087 88.71ZM110.524 88.6309V81.6757H111.646V88.6309H110.524ZM111.078 80.6463C110.85 80.6463 110.665 80.5759 110.524 80.4351C110.392 80.2944 110.326 80.114 110.326 79.894C110.326 79.6741 110.397 79.4981 110.537 79.3661C110.678 79.2254 110.858 79.155 111.078 79.155C111.281 79.155 111.457 79.2254 111.606 79.3661C111.765 79.5069 111.844 79.6829 111.844 79.894C111.844 80.114 111.769 80.2944 111.62 80.4351C111.47 80.5759 111.29 80.6463 111.078 80.6463ZM113.147 88.6309V79.3002H114.269V88.6309H113.147ZM118.555 88.71C117.86 88.71 117.288 88.5561 116.839 88.2481C116.39 87.9314 116.056 87.5091 115.836 86.9812C115.616 86.4445 115.506 85.8418 115.506 85.1731C115.506 84.5044 115.616 83.9017 115.836 83.365C116.056 82.8195 116.395 82.3884 116.852 82.0716C117.31 81.7549 117.895 81.5965 118.608 81.5965C118.88 81.5965 119.153 81.6317 119.426 81.7021C119.707 81.7637 119.971 81.8649 120.218 82.0057C120.464 82.1376 120.675 82.318 120.851 82.5468V79.3002H121.973V88.6309H120.904L120.851 87.5882C120.693 87.8522 120.491 88.0678 120.244 88.2349C120.007 88.3933 119.743 88.5121 119.452 88.5913C119.162 88.6705 118.863 88.71 118.555 88.71ZM118.713 87.7202C119.18 87.7202 119.571 87.6014 119.888 87.3639C120.205 87.1263 120.447 86.8096 120.614 86.4137C120.781 86.0177 120.864 85.5866 120.864 85.1203C120.864 84.6364 120.781 84.2053 120.614 83.8269C120.455 83.4486 120.218 83.1495 119.901 82.9295C119.584 82.7095 119.184 82.5996 118.7 82.5996C118.199 82.5996 117.794 82.7139 117.486 82.9427C117.187 83.1714 116.967 83.4838 116.826 83.8797C116.694 84.2669 116.628 84.7024 116.628 85.1863C116.628 85.5382 116.663 85.8682 116.734 86.1761C116.813 86.4753 116.932 86.7436 117.09 86.9812C117.257 87.2099 117.473 87.3903 117.737 87.5223C118.001 87.6542 118.326 87.7202 118.713 87.7202ZM123.471 88.6309V81.6757H124.593V88.6309H123.471ZM124.026 80.6463C123.797 80.6463 123.612 80.5759 123.471 80.4351C123.339 80.2944 123.273 80.114 123.273 79.894C123.273 79.6741 123.344 79.4981 123.484 79.3661C123.625 79.2254 123.806 79.155 124.026 79.155C124.228 79.155 124.404 79.2254 124.553 79.3661C124.712 79.5069 124.791 79.6829 124.791 79.894C124.791 80.114 124.716 80.2944 124.567 80.4351C124.417 80.5759 124.237 80.6463 124.026 80.6463ZM126.094 88.6309V81.6757H127.176L127.229 82.7315C127.388 82.4764 127.59 82.2652 127.836 82.098C128.083 81.9309 128.351 81.8077 128.641 81.7285C128.941 81.6405 129.231 81.5965 129.512 81.5965C130.19 81.5965 130.718 81.7373 131.096 82.0189C131.483 82.3004 131.756 82.6831 131.914 83.1671C132.082 83.6422 132.165 84.1833 132.165 84.7904V88.6309H131.043V85.0939C131.043 84.7684 131.021 84.456 130.977 84.1569C130.942 83.8577 130.863 83.5894 130.74 83.3518C130.625 83.1143 130.458 82.9295 130.238 82.7975C130.018 82.6567 129.724 82.5864 129.354 82.5864C128.897 82.5864 128.505 82.7139 128.179 82.9691C127.863 83.2242 127.621 83.5674 127.454 83.9985C127.295 84.4296 127.216 84.9135 127.216 85.4502V88.6309H126.094ZM136.65 91.7455C136.175 91.7455 135.735 91.6707 135.33 91.5211C134.925 91.3804 134.582 91.156 134.301 90.8481C134.019 90.5401 133.83 90.1486 133.733 89.6735H134.895C134.965 89.9374 135.097 90.1486 135.291 90.307C135.484 90.4653 135.709 90.5753 135.964 90.6369C136.219 90.7073 136.47 90.7425 136.716 90.7425C137.191 90.7425 137.574 90.6457 137.864 90.4521C138.163 90.2674 138.379 90.0078 138.511 89.6735C138.643 89.3479 138.709 88.974 138.709 88.5517V87.5882C138.559 87.8522 138.361 88.0678 138.115 88.2349C137.869 88.4021 137.6 88.5253 137.31 88.6045C137.019 88.6749 136.72 88.71 136.412 88.71C135.709 88.71 135.132 88.5561 134.684 88.2481C134.235 87.9314 133.9 87.5091 133.68 86.9812C133.469 86.4445 133.364 85.8418 133.364 85.1731C133.364 84.5044 133.474 83.9017 133.694 83.365C133.914 82.8195 134.252 82.3884 134.71 82.0716C135.167 81.7549 135.753 81.5965 136.465 81.5965C136.87 81.5965 137.279 81.6713 137.693 81.8209C138.106 81.9705 138.445 82.2124 138.709 82.5468L138.762 81.6757H139.831V88.5781C139.831 89.2292 139.712 89.7922 139.474 90.2674C139.245 90.7425 138.894 91.1076 138.418 91.3628C137.952 91.6179 137.363 91.7455 136.65 91.7455ZM136.571 87.7202C137.037 87.7202 137.429 87.6014 137.745 87.3639C138.062 87.1263 138.304 86.8096 138.471 86.4137C138.638 86.0177 138.722 85.5866 138.722 85.1203C138.722 84.6364 138.638 84.2053 138.471 83.8269C138.313 83.4486 138.075 83.1495 137.759 82.9295C137.442 82.7095 137.041 82.5996 136.558 82.5996C136.056 82.5996 135.651 82.7139 135.343 82.9427C135.044 83.1714 134.824 83.4794 134.684 83.8665C134.552 84.2537 134.486 84.6848 134.486 85.1599C134.486 85.6526 134.556 86.0925 134.697 86.4796C134.837 86.8668 135.062 87.1703 135.37 87.3903C135.678 87.6102 136.078 87.7202 136.571 87.7202ZM147.473 88.7364C147.094 88.7364 146.734 88.6836 146.39 88.5781C146.047 88.4725 145.744 88.3185 145.48 88.1162C145.216 87.905 145.005 87.641 144.846 87.3243C144.697 87.0076 144.622 86.638 144.622 86.2157C144.622 85.8198 144.697 85.4634 144.846 85.1467C145.005 84.8299 145.229 84.544 145.519 84.2888C145.81 84.0337 146.157 83.8049 146.562 83.6026C146.219 83.277 145.959 82.9383 145.783 82.5864C145.616 82.2344 145.533 81.8693 145.533 81.491C145.533 81.0862 145.621 80.7123 145.797 80.3692C145.972 80.0172 146.241 79.7357 146.602 79.5245C146.962 79.3046 147.424 79.1946 147.987 79.1946C148.41 79.1946 148.784 79.2738 149.109 79.4321C149.435 79.5905 149.69 79.8237 149.875 80.1316C150.059 80.4395 150.152 80.8135 150.152 81.2534C150.152 81.6229 150.059 81.9661 149.875 82.2828C149.699 82.5996 149.461 82.8855 149.162 83.1407C148.863 83.3958 148.528 83.6202 148.159 83.8137L150.139 86.1629C150.288 85.9605 150.411 85.7142 150.508 85.4238C150.605 85.1335 150.675 84.8299 150.719 84.5132H151.828C151.784 85.0147 151.674 85.4678 151.498 85.8726C151.322 86.2685 151.115 86.6336 150.878 86.968L152.356 88.6309H150.851L150.112 87.8126C149.743 88.1469 149.333 88.3845 148.885 88.5253C148.445 88.6661 147.974 88.7364 147.473 88.7364ZM147.657 87.6938C147.957 87.6938 148.26 87.6454 148.568 87.5487C148.885 87.4519 149.179 87.2671 149.452 86.9944L147.156 84.3548C146.91 84.478 146.685 84.6276 146.483 84.8036C146.28 84.9795 146.118 85.1819 145.994 85.4106C145.88 85.6394 145.823 85.899 145.823 86.1893C145.823 86.5236 145.911 86.8052 146.087 87.0339C146.272 87.2539 146.505 87.4211 146.786 87.5355C147.068 87.641 147.358 87.6938 147.657 87.6938ZM147.512 83.1275C147.723 83.0043 147.948 82.8547 148.185 82.6787C148.432 82.5028 148.638 82.3048 148.806 82.0848C148.982 81.8561 149.07 81.6185 149.07 81.3722C149.07 81.1434 149.021 80.9455 148.924 80.7783C148.828 80.6023 148.691 80.4703 148.515 80.3824C148.339 80.2856 148.132 80.2372 147.895 80.2372C147.499 80.2372 147.191 80.3428 146.971 80.5539C146.76 80.7651 146.654 81.0554 146.654 81.425C146.654 81.6625 146.698 81.8869 146.786 82.098C146.883 82.3004 146.997 82.4896 147.129 82.6655C147.27 82.8327 147.398 82.9867 147.512 83.1275ZM156.847 88.6309V79.3002H157.995V88.6309H156.847ZM159.76 88.6309V81.6757H160.842L160.895 82.7315C161.053 82.4764 161.256 82.2652 161.502 82.098C161.748 81.9309 162.017 81.8077 162.307 81.7285C162.606 81.6405 162.897 81.5965 163.178 81.5965C163.856 81.5965 164.384 81.7373 164.762 82.0189C165.149 82.3004 165.422 82.6831 165.58 83.1671C165.747 83.6422 165.831 84.1833 165.831 84.7904V88.6309H164.709V85.0939C164.709 84.7684 164.687 84.456 164.643 84.1569C164.608 83.8577 164.529 83.5894 164.406 83.3518C164.291 83.1143 164.124 82.9295 163.904 82.7975C163.684 82.6567 163.389 82.5864 163.02 82.5864C162.562 82.5864 162.171 82.7139 161.845 82.9691C161.528 83.2242 161.287 83.5674 161.119 83.9985C160.961 84.4296 160.882 84.9135 160.882 85.4502V88.6309H159.76ZM169.907 88.71C169.176 88.71 168.662 88.5121 168.362 88.1162C168.072 87.7202 167.927 87.1571 167.927 86.4269V82.6655H166.792V81.6757H167.927V79.5905H169.049V81.6757H171.187V82.6655H169.049V86.2817C169.049 86.5456 169.071 86.7876 169.115 87.0076C169.159 87.2187 169.251 87.3903 169.392 87.5223C169.533 87.6454 169.744 87.7114 170.025 87.7202C170.228 87.7202 170.404 87.685 170.553 87.6146C170.712 87.5443 170.844 87.4607 170.949 87.3639L171.437 88.1821C171.288 88.3053 171.13 88.4065 170.962 88.4857C170.804 88.5649 170.637 88.6221 170.461 88.6573C170.294 88.6924 170.109 88.71 169.907 88.71ZM175.271 88.71C174.532 88.71 173.921 88.5605 173.437 88.2613C172.953 87.9534 172.592 87.5311 172.355 86.9944C172.117 86.4577 171.998 85.8462 171.998 85.1599C171.998 84.4648 172.121 83.8533 172.368 83.3254C172.623 82.7887 172.992 82.3664 173.476 82.0585C173.96 81.7505 174.554 81.5965 175.258 81.5965C175.804 81.5965 176.27 81.7021 176.657 81.9133C177.053 82.1156 177.378 82.3884 177.634 82.7315C177.889 83.0747 178.073 83.453 178.188 83.8665C178.302 84.2712 178.351 84.6804 178.333 85.0939C178.324 85.1731 178.315 85.2523 178.307 85.3315C178.307 85.4106 178.302 85.4898 178.293 85.569H173.133C173.168 85.9737 173.27 86.3389 173.437 86.6644C173.604 86.99 173.841 87.2495 174.149 87.4431C174.457 87.6278 174.84 87.7202 175.298 87.7202C175.526 87.7202 175.755 87.6938 175.984 87.641C176.221 87.5795 176.433 87.4783 176.617 87.3375C176.811 87.1967 176.947 87.0076 177.026 86.77H178.175C178.069 87.2187 177.871 87.5882 177.581 87.8786C177.29 88.1601 176.943 88.3713 176.538 88.5121C176.133 88.6441 175.711 88.71 175.271 88.71ZM173.16 84.5924H177.185C177.176 84.1965 177.088 83.8489 176.921 83.5498C176.754 83.2506 176.525 83.0175 176.235 82.8503C175.953 82.6831 175.614 82.5996 175.218 82.5996C174.787 82.5996 174.422 82.6919 174.123 82.8767C173.833 83.0615 173.608 83.3034 173.45 83.6026C173.292 83.9017 173.195 84.2317 173.16 84.5924ZM179.564 88.6309V81.6757H180.646L180.699 82.7579C180.875 82.4852 181.077 82.2652 181.306 82.098C181.543 81.9309 181.803 81.8077 182.084 81.7285C182.375 81.6405 182.687 81.5965 183.021 81.5965C183.083 81.5965 183.14 81.5965 183.193 81.5965C183.255 81.5965 183.316 81.5965 183.378 81.5965V82.6523H182.969C182.423 82.6523 181.979 82.7711 181.636 83.0087C181.301 83.2374 181.059 83.5498 180.91 83.9457C180.76 84.3328 180.685 84.764 180.685 85.2391V88.6309H179.564ZM184.223 88.6309V81.6757H185.345V88.6309H184.223ZM184.777 80.6463C184.549 80.6463 184.364 80.5759 184.223 80.4351C184.091 80.2944 184.025 80.114 184.025 79.894C184.025 79.6741 184.095 79.4981 184.236 79.3661C184.377 79.2254 184.557 79.155 184.777 79.155C184.98 79.155 185.156 79.2254 185.305 79.3661C185.464 79.5069 185.543 79.6829 185.543 79.894C185.543 80.114 185.468 80.2944 185.318 80.4351C185.169 80.5759 184.988 80.6463 184.777 80.6463ZM189.881 88.71C189.151 88.71 188.54 88.5605 188.047 88.2613C187.554 87.9534 187.185 87.5311 186.938 86.9944C186.701 86.4577 186.582 85.8462 186.582 85.1599C186.582 84.4648 186.705 83.8533 186.952 83.3254C187.198 82.7887 187.567 82.3664 188.06 82.0585C188.553 81.7505 189.169 81.5965 189.908 81.5965C190.638 81.5965 191.245 81.7505 191.729 82.0585C192.222 82.3664 192.587 82.7887 192.825 83.3254C193.071 83.8533 193.194 84.4648 193.194 85.1599C193.194 85.8462 193.071 86.4577 192.825 86.9944C192.578 87.5311 192.209 87.9534 191.716 88.2613C191.232 88.5605 190.621 88.71 189.881 88.71ZM189.881 87.7202C190.392 87.7202 190.805 87.6058 191.122 87.3771C191.448 87.1483 191.685 86.8404 191.835 86.4533C191.993 86.0661 192.072 85.635 192.072 85.1599C192.072 84.6848 191.993 84.2537 191.835 83.8665C191.685 83.4794 191.448 83.1714 191.122 82.9427C190.805 82.7139 190.392 82.5996 189.881 82.5996C189.38 82.5996 188.966 82.7139 188.641 82.9427C188.324 83.1714 188.087 83.4794 187.928 83.8665C187.779 84.2537 187.704 84.6848 187.704 85.1599C187.704 85.635 187.779 86.0661 187.928 86.4533C188.087 86.8404 188.324 87.1483 188.641 87.3771C188.966 87.6058 189.38 87.7202 189.881 87.7202ZM194.431 88.6309V81.6757H195.513L195.566 82.7579C195.742 82.4852 195.944 82.2652 196.173 82.098C196.411 81.9309 196.67 81.8077 196.952 81.7285C197.242 81.6405 197.554 81.5965 197.889 81.5965C197.95 81.5965 198.008 81.5965 198.06 81.5965C198.122 81.5965 198.184 81.5965 198.245 81.5965V82.6523H197.836C197.291 82.6523 196.846 82.7711 196.503 83.0087C196.169 83.2374 195.927 83.5498 195.777 83.9457C195.628 84.3328 195.553 84.764 195.553 85.2391V88.6309H194.431ZM202.648 88.6309V79.3002H203.796V87.5882H208.916V88.6309H202.648ZM209.698 88.6309V81.6757H210.82V88.6309H209.698ZM210.252 80.6463C210.024 80.6463 209.839 80.5759 209.698 80.4351C209.566 80.2944 209.5 80.114 209.5 79.894C209.5 79.6741 209.57 79.4981 209.711 79.3661C209.852 79.2254 210.032 79.155 210.252 79.155C210.455 79.155 210.631 79.2254 210.78 79.3661C210.939 79.5069 211.018 79.6829 211.018 79.894C211.018 80.114 210.943 80.2944 210.793 80.4351C210.644 80.5759 210.463 80.6463 210.252 80.6463ZM212.321 88.6309V81.6757H213.403L213.456 82.5072C213.606 82.296 213.773 82.1244 213.958 81.9925C214.151 81.8605 214.362 81.7637 214.591 81.7021C214.829 81.6317 215.079 81.5965 215.343 81.5965C215.827 81.5965 216.219 81.7021 216.518 81.9133C216.817 82.1156 217.041 82.384 217.191 82.7183C217.349 82.4808 217.53 82.2784 217.732 82.1112C217.943 81.9441 218.176 81.8165 218.431 81.7285C218.695 81.6405 218.986 81.5965 219.303 81.5965C219.813 81.5965 220.222 81.7065 220.53 81.9265C220.847 82.1464 221.075 82.4456 221.216 82.8239C221.357 83.1934 221.427 83.6114 221.427 84.0777V88.6309H220.306V84.6452C220.306 84.4164 220.292 84.1833 220.266 83.9457C220.248 83.7082 220.196 83.4882 220.108 83.2858C220.02 83.0747 219.888 82.9075 219.712 82.7843C219.544 82.6523 219.307 82.5864 218.999 82.5864C218.709 82.5864 218.462 82.6567 218.26 82.7975C218.066 82.9295 217.908 83.1099 217.785 83.3386C217.662 83.5674 217.574 83.8137 217.521 84.0777C217.468 84.3328 217.442 84.588 217.442 84.8431V88.6309H216.32V84.632C216.32 84.412 216.307 84.1833 216.28 83.9457C216.263 83.7082 216.214 83.4882 216.135 83.2858C216.065 83.0747 215.942 82.9075 215.766 82.7843C215.598 82.6523 215.365 82.5864 215.066 82.5864C214.644 82.5864 214.314 82.7095 214.076 82.9559C213.839 83.1934 213.672 83.4882 213.575 83.8401C213.487 84.1833 213.443 84.522 213.443 84.8563V88.6309H212.321ZM222.87 88.6309V81.6757H223.992V88.6309H222.87ZM223.425 80.6463C223.196 80.6463 223.011 80.5759 222.87 80.4351C222.738 80.2944 222.672 80.114 222.672 79.894C222.672 79.6741 222.743 79.4981 222.884 79.3661C223.024 79.2254 223.205 79.155 223.425 79.155C223.627 79.155 223.803 79.2254 223.953 79.3661C224.111 79.5069 224.19 79.6829 224.19 79.894C224.19 80.114 224.115 80.2944 223.966 80.4351C223.816 80.5759 223.636 80.6463 223.425 80.6463ZM228.106 88.71C227.376 88.71 226.861 88.5121 226.562 88.1162C226.272 87.7202 226.127 87.1571 226.127 86.4269V82.6655H224.992V81.6757H226.127V79.5905H227.249V81.6757H229.387V82.6655H227.249V86.2817C227.249 86.5456 227.271 86.7876 227.315 87.0076C227.359 87.2187 227.451 87.3903 227.592 87.5223C227.733 87.6454 227.944 87.7114 228.225 87.7202C228.428 87.7202 228.604 87.685 228.753 87.6146C228.912 87.5443 229.043 87.4607 229.149 87.3639L229.637 88.1821C229.488 88.3053 229.329 88.4065 229.162 88.4857C229.004 88.5649 228.837 88.6221 228.661 88.6573C228.494 88.6924 228.309 88.71 228.106 88.71ZM233.471 88.71C232.732 88.71 232.121 88.5605 231.637 88.2613C231.153 87.9534 230.792 87.5311 230.554 86.9944C230.317 86.4577 230.198 85.8462 230.198 85.1599C230.198 84.4648 230.321 83.8533 230.568 83.3254C230.823 82.7887 231.192 82.3664 231.676 82.0585C232.16 81.7505 232.754 81.5965 233.458 81.5965C234.003 81.5965 234.47 81.7021 234.857 81.9133C235.253 82.1156 235.578 82.3884 235.833 82.7315C236.089 83.0747 236.273 83.453 236.388 83.8665C236.502 84.2712 236.551 84.6804 236.533 85.0939C236.524 85.1731 236.515 85.2523 236.507 85.3315C236.507 85.4106 236.502 85.4898 236.493 85.569H231.333C231.368 85.9737 231.469 86.3389 231.637 86.6644C231.804 86.99 232.041 87.2495 232.349 87.4431C232.657 87.6278 233.04 87.7202 233.497 87.7202C233.726 87.7202 233.955 87.6938 234.184 87.641C234.421 87.5795 234.632 87.4783 234.817 87.3375C235.011 87.1967 235.147 87.0076 235.226 86.77H236.375C236.269 87.2187 236.071 87.5882 235.781 87.8786C235.49 88.1601 235.143 88.3713 234.738 88.5121C234.333 88.6441 233.911 88.71 233.471 88.71ZM231.359 84.5924H235.385C235.376 84.1965 235.288 83.8489 235.121 83.5498C234.954 83.2506 234.725 83.0175 234.435 82.8503C234.153 82.6831 233.814 82.5996 233.418 82.5996C232.987 82.5996 232.622 82.6919 232.323 82.8767C232.033 83.0615 231.808 83.3034 231.65 83.6026C231.491 83.9017 231.395 84.2317 231.359 84.5924ZM240.548 88.71C239.853 88.71 239.281 88.5561 238.833 88.2481C238.384 87.9314 238.049 87.5091 237.83 86.9812C237.61 86.4445 237.5 85.8418 237.5 85.1731C237.5 84.5044 237.61 83.9017 237.83 83.365C238.049 82.8195 238.388 82.3884 238.846 82.0716C239.303 81.7549 239.888 81.5965 240.601 81.5965C240.874 81.5965 241.146 81.6317 241.419 81.7021C241.701 81.7637 241.965 81.8649 242.211 82.0057C242.457 82.1376 242.669 82.318 242.845 82.5468V79.3002H243.966V88.6309H242.897L242.845 87.5882C242.686 87.8522 242.484 88.0678 242.238 88.2349C242 88.3933 241.736 88.5121 241.446 88.5913C241.155 88.6705 240.856 88.71 240.548 88.71ZM240.707 87.7202C241.173 87.7202 241.564 87.6014 241.881 87.3639C242.198 87.1263 242.44 86.8096 242.607 86.4137C242.774 86.0177 242.858 85.5866 242.858 85.1203C242.858 84.6364 242.774 84.2053 242.607 83.8269C242.449 83.4486 242.211 83.1495 241.894 82.9295C241.578 82.7095 241.177 82.5996 240.693 82.5996C240.192 82.5996 239.787 82.7139 239.479 82.9427C239.18 83.1714 238.96 83.4838 238.819 83.8797C238.687 84.2669 238.621 84.7024 238.621 85.1863C238.621 85.5382 238.657 85.8682 238.727 86.1761C238.806 86.4753 238.925 86.7436 239.083 86.9812C239.25 87.2099 239.466 87.3903 239.73 87.5223C239.994 87.6542 240.319 87.7202 240.707 87.7202Z" fill="#B87333"/>
<path d="M198.617 19.9541V14.1012H200.67C200.963 14.1012 201.228 14.126 201.465 14.1757C201.702 14.2199 201.907 14.2971 202.078 14.4075C202.254 14.5179 202.389 14.6669 202.483 14.8545C202.577 15.0422 202.624 15.2795 202.624 15.5665C202.624 15.8645 202.555 16.1294 202.417 16.3612C202.285 16.593 202.078 16.7641 201.796 16.8745C202.171 16.9407 202.453 17.0953 202.641 17.3381C202.828 17.5754 202.922 17.8928 202.922 18.2901C202.922 18.6157 202.861 18.8862 202.74 19.1014C202.618 19.3167 202.45 19.4877 202.235 19.6147C202.025 19.7361 201.782 19.8244 201.506 19.8796C201.23 19.9293 200.938 19.9541 200.629 19.9541H198.617ZM199.337 19.3001H200.604C200.775 19.3001 200.952 19.2918 201.134 19.2753C201.322 19.2532 201.495 19.2118 201.655 19.1511C201.815 19.0849 201.945 18.9828 202.045 18.8448C202.144 18.7068 202.194 18.5219 202.194 18.2901C202.194 18.0914 202.155 17.9286 202.078 17.8017C202.006 17.6748 201.907 17.5754 201.78 17.5037C201.658 17.4319 201.517 17.3822 201.357 17.3547C201.197 17.3271 201.035 17.3133 200.869 17.3133H199.337V19.3001ZM199.337 16.6675H200.463C200.668 16.6675 200.858 16.651 201.035 16.6179C201.211 16.5792 201.366 16.5185 201.498 16.4357C201.631 16.353 201.733 16.2453 201.804 16.1129C201.882 15.9804 201.92 15.8149 201.92 15.6162C201.926 15.3623 201.871 15.1746 201.755 15.0532C201.639 14.9318 201.484 14.8518 201.291 14.8132C201.104 14.7745 200.899 14.7552 200.679 14.7552H199.337V16.6675ZM203.885 19.9541V14.1012H204.804L207.858 18.9772V14.1012H208.579V19.9541H207.676L204.605 15.0946V19.9541H203.885ZM212.029 19.9541L214.396 14.7635H211.3V14.1012H215.191V14.6973L212.823 19.9541H212.029ZM217.543 20.0203C217.311 20.0203 217.077 19.9983 216.839 19.9541C216.608 19.9044 216.39 19.8272 216.185 19.7223C215.987 19.6174 215.816 19.4767 215.672 19.3001C215.534 19.1235 215.446 18.9055 215.407 18.6461H216.152C216.218 18.8337 216.329 18.98 216.483 19.0849C216.638 19.1897 216.809 19.2642 216.997 19.3084C217.19 19.347 217.375 19.3663 217.551 19.3663C217.678 19.3663 217.816 19.3553 217.965 19.3332C218.114 19.3111 218.258 19.2642 218.396 19.1925C218.539 19.1207 218.655 19.0159 218.743 18.8779C218.832 18.7344 218.876 18.5468 218.876 18.315C218.876 18.0942 218.834 17.9176 218.752 17.7851C218.669 17.6472 218.558 17.5451 218.42 17.4788C218.283 17.4071 218.128 17.3602 217.957 17.3381C217.791 17.316 217.623 17.305 217.452 17.305H216.889V16.6593H217.228C217.422 16.6593 217.604 16.6427 217.775 16.6096C217.946 16.571 218.098 16.513 218.23 16.4357C218.363 16.3585 218.465 16.2564 218.536 16.1294C218.614 16.0025 218.652 15.8452 218.652 15.6576C218.652 15.3871 218.594 15.1829 218.478 15.045C218.368 14.907 218.225 14.8132 218.048 14.7635C217.871 14.7138 217.686 14.689 217.493 14.689C217.339 14.689 217.179 14.7138 217.013 14.7635C216.853 14.8076 216.71 14.8821 216.583 14.987C216.456 15.0863 216.37 15.2216 216.326 15.3926H215.606C215.639 15.1498 215.716 14.9429 215.838 14.7718C215.959 14.6007 216.108 14.4599 216.285 14.3496C216.467 14.2392 216.665 14.1592 216.881 14.1095C217.101 14.0598 217.325 14.035 217.551 14.035C217.8 14.035 218.031 14.0626 218.247 14.1178C218.467 14.1674 218.661 14.253 218.826 14.3744C218.992 14.4903 219.121 14.6448 219.215 14.838C219.315 15.0312 219.364 15.2657 219.364 15.5417C219.364 15.7459 219.331 15.9335 219.265 16.1046C219.199 16.2757 219.099 16.4247 218.967 16.5516C218.84 16.6786 218.68 16.7834 218.487 16.8662C218.735 16.9104 218.942 16.9987 219.108 17.1311C219.279 17.2636 219.406 17.4264 219.488 17.6196C219.577 17.8072 219.621 18.0197 219.621 18.257C219.621 18.6268 219.555 18.9276 219.422 19.1594C219.29 19.3912 219.119 19.5705 218.909 19.6975C218.699 19.8189 218.473 19.9044 218.23 19.9541C217.987 19.9983 217.758 20.0203 217.543 20.0203ZM220.752 19.9541L223.12 14.7635H220.023V14.1012H223.914V14.6973L221.547 19.9541H220.752ZM226.654 20.0203C226.256 20.0203 225.914 19.9458 225.627 19.7968C225.346 19.6423 225.114 19.4353 224.932 19.1759C224.755 18.911 224.625 18.613 224.543 18.2818C224.46 17.9452 224.418 17.592 224.418 17.2222C224.418 16.7862 224.46 16.3778 224.543 15.997C224.631 15.6106 224.766 15.2712 224.948 14.9787C225.136 14.6862 225.379 14.4572 225.677 14.2916C225.975 14.1205 226.333 14.035 226.753 14.035C227.034 14.035 227.297 14.0846 227.539 14.184C227.788 14.2778 228.003 14.4213 228.185 14.6145C228.367 14.8021 228.502 15.0339 228.591 15.3099H227.837C227.738 15.1057 227.586 14.9511 227.382 14.8463C227.178 14.7414 226.965 14.689 226.745 14.689C226.491 14.689 226.273 14.7386 226.091 14.838C225.909 14.9318 225.754 15.0587 225.627 15.2188C225.506 15.3789 225.406 15.561 225.329 15.7652C225.257 15.9694 225.205 16.1819 225.172 16.4026C225.139 16.6234 225.122 16.8386 225.122 17.0483C225.249 16.8552 225.395 16.6979 225.561 16.5765C225.732 16.4551 225.917 16.3668 226.115 16.3116C226.32 16.2509 226.527 16.2205 226.736 16.2205C227.123 16.2205 227.457 16.3005 227.738 16.4606C228.025 16.6151 228.249 16.8331 228.409 17.1146C228.569 17.3905 228.649 17.7106 228.649 18.0749C228.649 18.4612 228.563 18.8006 228.392 19.0931C228.221 19.3856 227.984 19.6147 227.68 19.7803C227.382 19.9403 227.04 20.0203 226.654 20.0203ZM226.637 19.3663C226.885 19.3663 227.103 19.3139 227.291 19.209C227.484 19.0987 227.636 18.9524 227.746 18.7703C227.857 18.5826 227.912 18.3757 227.912 18.1494C227.912 17.9066 227.859 17.6913 227.755 17.5037C227.65 17.316 227.504 17.167 227.316 17.0566C227.134 16.9462 226.919 16.8911 226.67 16.8911C226.444 16.8911 226.229 16.9435 226.024 17.0483C225.82 17.1477 225.655 17.2912 225.528 17.4788C225.406 17.661 225.346 17.879 225.346 18.1328C225.346 18.3646 225.401 18.5744 225.511 18.762C225.627 18.9441 225.782 19.0904 225.975 19.2008C226.173 19.3111 226.394 19.3663 226.637 19.3663ZM231.646 20.0203C231.249 20.0203 230.906 19.9458 230.619 19.7968C230.338 19.6423 230.106 19.4353 229.924 19.1759C229.747 18.911 229.618 18.613 229.535 18.2818C229.452 17.9452 229.411 17.592 229.411 17.2222C229.411 16.7862 229.452 16.3778 229.535 15.997C229.623 15.6106 229.758 15.2712 229.941 14.9787C230.128 14.6862 230.371 14.4572 230.669 14.2916C230.967 14.1205 231.326 14.035 231.745 14.035C232.027 14.035 232.289 14.0846 232.532 14.184C232.78 14.2778 232.995 14.4213 233.177 14.6145C233.36 14.8021 233.495 15.0339 233.583 15.3099H232.83C232.73 15.1057 232.579 14.9511 232.374 14.8463C232.17 14.7414 231.958 14.689 231.737 14.689C231.483 14.689 231.265 14.7386 231.083 14.838C230.901 14.9318 230.746 15.0587 230.619 15.2188C230.498 15.3789 230.399 15.561 230.321 15.7652C230.25 15.9694 230.197 16.1819 230.164 16.4026C230.131 16.6234 230.114 16.8386 230.114 17.0483C230.241 16.8552 230.388 16.6979 230.553 16.5765C230.724 16.4551 230.909 16.3668 231.108 16.3116C231.312 16.2509 231.519 16.2205 231.729 16.2205C232.115 16.2205 232.449 16.3005 232.73 16.4606C233.017 16.6151 233.241 16.8331 233.401 17.1146C233.561 17.3905 233.641 17.7106 233.641 18.0749C233.641 18.4612 233.555 18.8006 233.384 19.0931C233.213 19.3856 232.976 19.6147 232.672 19.7803C232.374 19.9403 232.032 20.0203 231.646 20.0203ZM231.629 19.3663C231.878 19.3663 232.096 19.3139 232.283 19.209C232.477 19.0987 232.628 18.9524 232.739 18.7703C232.849 18.5826 232.904 18.3757 232.904 18.1494C232.904 17.9066 232.852 17.6913 232.747 17.5037C232.642 17.316 232.496 17.167 232.308 17.0566C232.126 16.9462 231.911 16.8911 231.662 16.8911C231.436 16.8911 231.221 16.9435 231.017 17.0483C230.813 17.1477 230.647 17.2912 230.52 17.4788C230.399 17.661 230.338 17.879 230.338 18.1328C230.338 18.3646 230.393 18.5744 230.503 18.762C230.619 18.9441 230.774 19.0904 230.967 19.2008C231.166 19.3111 231.387 19.3663 231.629 19.3663ZM234.751 19.9541L237.118 14.7635H234.022V14.1012H237.913V14.6973L235.545 19.9541H234.751ZM240.694 20.0203C240.285 20.0203 239.935 19.9458 239.642 19.7968C239.355 19.6423 239.121 19.4298 238.939 19.1594C238.757 18.8834 238.621 18.5661 238.533 18.2073C238.45 17.8431 238.409 17.4512 238.409 17.0318C238.409 16.6123 238.45 16.2233 238.533 15.8645C238.616 15.5003 238.748 15.1829 238.93 14.9125C239.113 14.6365 239.347 14.4213 239.634 14.2668C239.927 14.1122 240.28 14.035 240.694 14.035C241.13 14.035 241.494 14.1205 241.786 14.2916C242.085 14.4572 242.319 14.6835 242.49 14.9704C242.667 15.2574 242.791 15.5803 242.863 15.939C242.94 16.2922 242.979 16.6565 242.979 17.0318C242.979 17.4071 242.94 17.7741 242.863 18.1328C242.791 18.486 242.667 18.8061 242.49 19.0931C242.319 19.3746 242.085 19.6009 241.786 19.772C241.494 19.9375 241.13 20.0203 240.694 20.0203ZM240.694 19.3663C241.019 19.3663 241.282 19.2973 241.48 19.1594C241.684 19.0159 241.842 18.8282 241.952 18.5964C242.062 18.3646 242.137 18.1135 242.176 17.8431C242.214 17.5671 242.234 17.2967 242.234 17.0318C242.234 16.7724 242.214 16.5075 242.176 16.2371C242.137 15.9611 242.062 15.7072 241.952 15.4754C241.842 15.2381 241.684 15.0477 241.48 14.9042C241.282 14.7607 241.019 14.689 240.694 14.689C240.363 14.689 240.095 14.7607 239.891 14.9042C239.687 15.0477 239.529 15.2381 239.419 15.4754C239.314 15.7072 239.242 15.9611 239.204 16.2371C239.165 16.5075 239.146 16.7724 239.146 17.0318C239.146 17.2967 239.165 17.5671 239.204 17.8431C239.242 18.1135 239.314 18.3646 239.419 18.5964C239.529 18.8282 239.687 19.0159 239.891 19.1594C240.095 19.2973 240.363 19.3663 240.694 19.3663Z" fill="#B87333"/>
<path d="M38.995 17.5739C43.7682 23.2441 48.1628 28.4645 52.2968 34.7616L52.2975 34.7622L52.2724 37.6975C41.0937 25.8101 35.5044 19.8661 35.5044 19.8661C19.3164 28.3211 8.52119 33.9593 3.11866 36.781L0.000644337 38.4095V33.9357C23.9543 20.5929 35.9318 13.9221 35.9318 13.9221C36.9704 15.1688 37.9911 16.3813 38.995 17.5739Z" fill="#72833A"/>
<path d="M38.9974 29.8971C43.7699 34.961 48.1639 39.6234 52.2975 45.2469L52.2981 45.2476L52.273 47.8694C41.0944 37.2514 35.505 31.9428 35.505 31.9428C18.4214 39.9121 7.34381 45.08 2.27211 47.446L0.00128867 48.5054V44.5092L35.9325 26.6334C36.9716 27.7476 37.9929 28.8312 38.9974 29.8971Z" fill="#72833A"/>
<path d="M38.992 42.347C43.7666 46.7706 48.1624 50.8432 52.2975 55.7555L52.2981 55.7561L52.273 58.0451C41.0944 48.7738 35.505 44.1385 35.505 44.1385C15.113 52.4449 3.27841 57.2656 0.00128867 58.6007V55.1111C23.955 44.7049 35.9325 39.5025 35.9325 39.5025C36.9697 40.4735 37.9892 41.418 38.992 42.347Z" fill="#72833A"/>
<path d="M38.9959 51.8632C43.769 56.444 48.1635 60.6614 52.2975 65.7484L52.273 68.1198C41.0944 58.5163 35.505 53.7149 35.505 53.7149C15.113 62.3194 3.27841 67.3126 0.00128867 68.6953V65.0809C23.955 54.302 35.9325 48.9128 35.9325 48.9128C36.9711 49.92 37.9919 50.8997 38.9959 51.8632Z" fill="#72833A"/>
<path d="M39.0033 64.5979C43.7735 68.4597 48.1656 72.0154 52.2975 76.3046L52.2981 76.3039L52.273 78.3046C41.0944 70.2035 35.505 66.1533 35.505 66.1533C19.4905 71.8531 8.75375 75.6747 3.2948 77.6177L0.00128867 78.7899V75.7413C23.955 66.649 35.9325 62.1031 35.9325 62.1031C36.9736 62.9548 37.9969 63.7832 39.0033 64.5979Z" fill="#72833A"/>
<path d="M38.9997 78.6071C43.7713 81.4041 48.1646 83.9793 52.2975 87.0854L52.2981 87.0861L52.273 88.5344L35.505 79.7362L0.00128867 88.8859V86.678C23.955 80.0947 35.9325 76.8028 35.9325 76.8028C36.9724 77.4188 37.9945 78.0179 38.9997 78.6071Z" fill="#72833A"/>
<path d="M20.9619 15.3947C9.38681 22.2691 2.39951 26.4188 0 27.8436V22.7564C23.9537 7.58546 35.9312 0 35.9312 0C44.3728 11.5211 48.5929 17.2804 48.5929 17.2804V12.4899C50.9534 14.721 52.208 15.8043 52.3567 15.7413L52.2717 27.0338C41.0931 13.5166 35.5038 6.7583 35.5038 6.7583L20.9619 15.3947Z" fill="#B87333"/>
<line x1="58.4775" y1="73.175" x2="244.046" y2="73.175" stroke="black" stroke-width="0.23391"/>
</svg>
